<svg width="121" height="53" viewBox="0 0 121 53" fill="none" xmlns="http://www.w3.org/2000/svg">
<path d="M14.2539 52.7129C11.6162 52.7129 9.23991 52.0594 7.125 50.7524C4.98633 49.4455 3.26351 47.687 1.95654 45.4771C0.67334 43.2671 0.0317383 40.7957 0.0317383 38.063V14.9297C0.0317383 12.2682 0.685221 9.8444 1.99219 7.6582C3.27539 5.44824 4.99821 3.68978 7.16064 2.38281C9.32308 1.05208 11.6875 0.386719 14.2539 0.386719C16.9391 0.386719 19.363 1.02832 21.5254 2.31152C23.6878 3.61849 25.3988 5.36507 26.6582 7.55127C27.9414 9.73747 28.583 12.1969 28.583 14.9297V18.2803C28.583 18.4704 28.4642 18.5654 28.2266 18.5654H20.0283C19.8382 18.5654 19.7432 18.4704 19.7432 18.2803V15.5C19.7432 13.6465 19.2204 12.1138 18.1748 10.9019C17.1292 9.68994 15.8223 9.08398 14.2539 9.08398C12.8519 9.08398 11.6043 9.66618 10.5112 10.8306C9.41813 11.995 8.87158 13.3613 8.87158 14.9297V38.063C8.87158 39.6551 9.40625 41.0334 10.4756 42.1978C11.5449 43.3384 12.8044 43.9087 14.2539 43.9087C15.8223 43.9087 17.1292 43.3503 18.1748 42.2334C19.2204 41.0928 19.7432 39.7026 19.7432 38.063V34.4629H14.646C14.3846 34.4629 14.2539 34.3441 14.2539 34.1064V25.9438C14.2539 25.7062 14.3846 25.5874 14.646 25.5874H28.2979C28.488 25.5874 28.583 25.7062 28.583 25.9438V38.063C28.583 40.7957 27.9414 43.2671 26.6582 45.4771C25.3512 47.687 23.6284 49.4455 21.4897 50.7524C19.3511 52.0594 16.9391 52.7129 14.2539 52.7129ZM47.2607 52.7129C44.6706 52.7129 42.2824 52.0475 40.0962 50.7168C37.9338 49.3861 36.1872 47.6157 34.8564 45.4058C33.5495 43.172 32.896 40.7244 32.896 38.063L32.9673 14.9297C32.9673 12.2207 33.6208 9.78499 34.9277 7.62256C36.2109 5.43636 37.9456 3.68978 40.1318 2.38281C42.318 1.05208 44.6943 0.386719 47.2607 0.386719C49.9222 0.386719 52.3104 1.0402 54.4253 2.34717C56.564 3.65413 58.2749 5.4126 59.5581 7.62256C60.8651 9.80876 61.5186 12.2445 61.5186 14.9297L61.5898 38.063C61.5898 40.7244 60.9482 43.1602 59.665 45.3701C58.3581 47.6038 56.6234 49.3861 54.4609 50.7168C52.2985 52.0475 49.8984 52.7129 47.2607 52.7129ZM47.2607 43.9087C48.734 43.9087 50.0173 43.3146 51.1104 42.1265C52.2035 40.9146 52.75 39.5601 52.75 38.063L52.6787 14.9297C52.6787 13.3138 52.1678 11.9474 51.146 10.8306C50.1242 9.7137 48.8291 9.15527 47.2607 9.15527C45.7637 9.15527 44.4805 9.70182 43.4111 10.7949C42.3418 11.888 41.8071 13.2663 41.8071 14.9297V38.063C41.8071 39.6551 42.3418 41.0334 43.4111 42.1978C44.4805 43.3384 45.7637 43.9087 47.2607 43.9087ZM81.1943 52H72.9604C72.7466 52 72.6396 51.8812 72.6396 51.6436V10.0107H63.1582C62.9206 10.0107 62.8018 9.89193 62.8018 9.6543L62.873 1.4917C62.873 1.3016 62.9681 1.20654 63.1582 1.20654H90.8896C91.151 1.20654 91.2817 1.3016 91.2817 1.4917V9.6543C91.2817 9.89193 91.1867 10.0107 90.9966 10.0107H81.4082L81.4795 51.6436C81.4795 51.8812 81.3844 52 81.1943 52ZM110.066 52H101.69C101.524 52 101.44 51.9049 101.44 51.7148L101.512 30.9697L91.7451 1.4917C91.6976 1.3016 91.7689 1.20654 91.959 1.20654H100.086C100.324 1.20654 100.466 1.3016 100.514 1.4917L105.896 21.1318L111.385 1.4917C111.433 1.3016 111.552 1.20654 111.742 1.20654H119.94C120.13 1.20654 120.201 1.3016 120.154 1.4917L110.28 30.6846L110.352 51.7148C110.352 51.9049 110.257 52 110.066 52Z" fill="black"/>
</svg>
